<svg xmlns="http://www.w3.org/2000/svg" xmlns:xlink="http://www.w3.org/1999/xlink" width="481.71" height="228.165" viewBox="0 0 481.71 228.165">
  <g transform="matrix(1, 0, 0, 1, 0, 0)" filter="url(#Path_1)">
    <path id="Path_1-2" data-name="Path 1" d="M149.37-149.565q0,5.85-2.437,8.775t-7.9,2.925q-.39,4.095-1.755,14.235-1.95,13.65-2.145,15.21Q117.78,20.865,62.79,20.865q-16.185,0-25.253-9.165T28.47-11.31q0-24.765,21.06-43.778T104.91-86.58q2.145-13.845,3.315-24.765l3.51-29.445q-11.7-1.17-21.84-1.17-27.1,0-39.975,5.265t-12.87,17.16q0,5.85,3.9,12.675a7.84,7.84,0,0,1,1.17,4.095q0,4.1-4.193,7.312a14.6,14.6,0,0,1-9.068,3.217A10.633,10.633,0,0,1,19.305-97.5a39.329,39.329,0,0,1-5.46-20.865q0-46.8,81.9-46.8,23.79,0,42.51,4.68Q149.37-157.755,149.37-149.565ZM65.325,0q9.555,0,19.11-14.43t16.77-50.5q-47.58,20.865-47.58,51.09,0,6.63,3.12,10.238A10.748,10.748,0,0,0,65.325,0Zm179.6-59.865a4.255,4.255,0,0,1,3.9,2.535,13.487,13.487,0,0,1,1.365,6.435q0,9.36-5.655,11.115a88.78,88.78,0,0,1-25.74,4.68q-3.705,16.38-14.625,26.228T179.4.975q-11.7,0-19.987-5.655A35.917,35.917,0,0,1,146.835-19.7a48.085,48.085,0,0,1-4.29-20.28A59.551,59.551,0,0,1,148.2-66.4a44.425,44.425,0,0,1,15.6-18.135,39.287,39.287,0,0,1,22.035-6.533q14.82,0,23.888,10.238T220.35-55.575a118.189,118.189,0,0,0,21.84-3.9A11.459,11.459,0,0,1,244.92-59.865ZM180.96-19.7a14.142,14.142,0,0,0,10.822-5.07q4.582-5.07,6.143-14.625a26.92,26.92,0,0,1-9.262-10.725,31.75,31.75,0,0,1-3.217-14.04,33.792,33.792,0,0,1,.585-6.24h-.975q-7.8,0-12.967,7.507T166.92-41.73q0,10.725,4.193,16.38T180.96-19.7Zm156.195-40.17a4.255,4.255,0,0,1,3.9,2.535A13.487,13.487,0,0,1,342.42-50.9a16.641,16.641,0,0,1-1.365,7.507,7.2,7.2,0,0,1-4.29,3.608,88.779,88.779,0,0,1-25.74,4.68q-3.9,16.185-14.723,26.13T272.415.975Q252.72.975,243.75-14.04t-8.97-43.485q0-25.155,6.24-54.7t18.233-50.31Q271.245-183.3,287.82-183.3q8.97,0,14.43,7.7t5.46,19.988a88.33,88.33,0,0,1-6.045,31.785q-6.045,15.795-20.085,33.15a29.375,29.375,0,0,1,21.255,10.823q8.19,9.848,9.75,24.278a118.188,118.188,0,0,0,21.84-3.9A8.642,8.642,0,0,1,337.155-59.865ZM283.335-164q-3.9,0-8.482,11.6T266.37-120.9a396.392,396.392,0,0,0-5.85,43.485q12.87-23.6,20.573-41.632t7.7-32.078q0-6.24-1.462-9.555T283.335-164ZM273.2-19.7q6.045,0,10.725-5.07t6.24-14.625A26.92,26.92,0,0,1,280.9-50.115a31.75,31.75,0,0,1-3.217-14.04,47.747,47.747,0,0,1,.78-7.41h-.585q-7.995,0-13.358,7.9T259.155-42.51q0,11.115,4.193,16.965T273.2-19.7ZM412.62-43.485a4.506,4.506,0,0,1,4,2.34,12.1,12.1,0,0,1,1.462,6.435q0,7.8-3.705,12.09Q407.16-13.845,394-6.435A56.528,56.528,0,0,1,365.82.975q-20.475,0-31.785-11.115t-11.31-30.42a56.427,56.427,0,0,1,5.655-25.057,46.3,46.3,0,0,1,15.7-18.427A39.478,39.478,0,0,1,366.8-90.87q11.31,0,18.135,6.728t6.825,18.232A31.527,31.527,0,0,1,382.1-42.8Q372.45-33.15,349.44-27.5q4.875,8.97,18.525,8.97,8.775,0,19.988-6.142a66.012,66.012,0,0,0,19.4-16.088A6.845,6.845,0,0,1,412.62-43.485ZM363.48-71.76q-7.215,0-12.187,8.385T346.32-43.1v.39q11.505-2.73,18.135-8.19t6.63-12.675a8.478,8.478,0,0,0-2.048-5.948A7.153,7.153,0,0,0,363.48-71.76ZM472.095-37.635a4.506,4.506,0,0,1,4,2.34,12.1,12.1,0,0,1,1.463,6.435,21.6,21.6,0,0,1-3.315,12.09A37.965,37.965,0,0,1,459.907-3.7Q451.035.975,438.75.975q-18.72,0-29.055-11.212T399.36-40.56a56.427,56.427,0,0,1,5.655-25.057,46.3,46.3,0,0,1,15.7-18.427A39.478,39.478,0,0,1,443.43-90.87q11.31,0,18.135,6.728T468.39-65.91A31.527,31.527,0,0,1,458.737-42.8Q449.085-33.15,425.88-27.5q4.68,8.97,15.795,8.97,7.995,0,13.163-3.7T466.83-34.71A6.707,6.707,0,0,1,472.095-37.635ZM440.115-71.76q-7.215,0-12.187,8.385T422.955-43.1v.39q11.505-2.73,18.135-8.19t6.63-12.675a8.478,8.478,0,0,0-2.047-5.948A7.153,7.153,0,0,0,440.115-71.76Z" transform="translate(-5.85 183.3)" fill="#0f142f" opacity="0.933"/>
  </g>
</svg>
